<svg xmlns="http://www.w3.org/2000/svg" width="24" height="24" fill="none"><script xmlns=""/><path d="M23.987 12.225c0-.984-.081-1.701-.258-2.445h-11.49v4.438h6.744c-.136 1.102-.87 2.764-2.502 3.88l-.023.148 3.634 2.75.251.025c2.312-2.086 3.644-5.156 3.644-8.796" fill="#4285F4"/><path d="M12.24 23.918c3.303 0 6.077-1.063 8.103-2.897l-3.861-2.923c-1.034.704-2.42 1.196-4.243 1.196a7.352 7.352 0 01-6.962-4.97l-.143.012-3.778 2.857-.05.134c2.013 3.906 6.147 6.59 10.933 6.59z" fill="#34A853"/><path d="M5.277 14.324a7.21 7.21 0 01-.408-2.365c0-.824.15-1.621.394-2.365l-.006-.159-3.825-2.903-.125.059A11.748 11.748 0 000 11.959c0 1.927.476 3.747 1.306 5.368l3.97-3.003" fill="#FBBC05"/><path d="M12.24 4.624c2.297 0 3.847.97 4.731 1.78l3.454-3.295C18.304 1.183 15.543 0 12.239 0 7.453 0 3.32 2.684 1.307 6.59l3.957 3.004a7.382 7.382 0 016.975-4.97" fill="#EB4335"/></svg>